<?xml version="1.0" encoding="utf-8"?>
<!-- Generator: Adobe Illustrator 16.0.0, SVG Export Plug-In . SVG Version: 6.00 Build 0)  -->
<!DOCTYPE svg PUBLIC "-//W3C//DTD SVG 1.1//EN" "http://www.w3.org/Graphics/SVG/1.1/DTD/svg11.dtd">
<svg version="1.1" id="Ebene_1" xmlns="http://www.w3.org/2000/svg" xmlns:xlink="http://www.w3.org/1999/xlink" x="0px" y="0px"
	 width="235.77px" height="801.617px" viewBox="0 0 235.77 801.617" enable-background="new 0 0 235.77 801.617"
	 xml:space="preserve">
<rect x="47.156" y="117.882" fill="#E2BA7C" width="23.579" height="23.58"/>
<rect x="70.735" y="117.882" width="23.577" height="23.58"/>
<rect x="94.313" y="117.882" fill="#E2BA7C" width="23.579" height="23.58"/>
<rect x="117.892" y="117.882" fill="#E2BA7C" width="23.577" height="23.58"/>
<rect x="141.469" y="117.882" width="23.578" height="23.58"/>
<rect x="165.047" y="117.882" fill="#E2BA7C" width="23.579" height="23.58"/>
<g>
	<rect x="47.147" y="70.731" fill="#925F36" width="23.578" height="23.577"/>
	<rect x="70.726" y="70.731" fill="#925F36" width="23.579" height="23.577"/>
	<rect x="94.305" y="70.731" fill="#925F36" width="23.577" height="23.577"/>
	<rect x="117.882" y="70.731" fill="#925F36" width="23.58" height="23.577"/>
	<rect x="141.462" y="70.731" fill="#925F36" width="23.579" height="23.577"/>
	<rect x="165.041" y="70.731" fill="#925F36" width="23.578" height="23.577"/>
</g>
<g>
	<rect x="47.159" y="47.154" fill="#6B1417" width="23.576" height="23.578"/>
	<rect x="70.735" y="47.154" fill="#6B1417" width="23.577" height="23.578"/>
	<rect x="94.313" y="47.154" fill="#6B1417" width="23.578" height="23.578"/>
	<rect x="117.891" y="47.154" fill="#6B1417" width="23.581" height="23.578"/>
	<rect x="141.472" y="47.154" fill="#6B1417" width="23.576" height="23.578"/>
	<rect x="165.048" y="47.154" fill="#6B1417" width="23.578" height="23.578"/>
</g>
<rect x="70.726" y="23.577" fill="#6B1417" width="23.577" height="23.577"/>
<rect x="94.303" y="23.577" fill="#6B1417" width="23.576" height="23.577"/>
<rect x="117.879" y="23.577" fill="#6B1417" width="23.583" height="23.577"/>
<rect x="94.307" fill="#6B1417" width="23.578" height="23.577"/>
<rect x="117.885" fill="#6B1417" width="23.582" height="23.577"/>
<rect x="141.462" y="23.577" fill="#6B1417" width="23.576" height="23.577"/>
<rect x="70.726" y="70.731" fill="#925F36" width="23.577" height="23.577"/>
<rect x="47.153" y="70.731" fill="#925F36" width="23.577" height="23.577"/>
<rect x="94.303" y="70.731" fill="#925F36" width="23.576" height="23.577"/>
<rect x="117.879" y="70.731" fill="#925F36" width="23.583" height="23.577"/>
<rect x="23.581" y="117.88" fill="#925F36" width="23.578" height="23.58"/>
<rect x="23.581" y="70.731" fill="#925F36" width="23.578" height="23.577"/>
<rect x="188.62" y="70.731" fill="#925F36" width="23.577" height="23.577"/>
<rect x="188.62" y="117.88" fill="#925F36" width="23.577" height="23.58"/>
<rect x="47.159" y="282.92" fill="#0A2D1B" width="23.576" height="23.576"/>
<rect x="23.581" y="306.496" fill="#A8AF8A" width="23.578" height="23.578"/>
<rect x="47.159" y="330.074" fill="#015F46" width="23.576" height="23.577"/>
<rect x="23.581" y="330.074" fill="#A8AF8A" width="23.578" height="23.577"/>
<rect x="165.044" y="282.92" fill="#0A2D1B" width="23.576" height="23.576"/>
<rect x="141.467" y="282.92" fill="#0A2D1B" width="23.577" height="23.576"/>
<rect x="141.467" y="259.342" fill="#A8AF8A" width="23.577" height="23.578"/>
<rect x="70.735" y="282.92" fill="#0A2D1B" width="23.577" height="23.576"/>
<rect x="70.735" y="259.342" fill="#A8AF8A" width="23.577" height="23.578"/>
<rect x="47.147" y="141.46" fill="#E2BA7C" width="23.578" height="23.58"/>
<rect x="70.726" y="141.46" fill="#E2BA7C" width="23.579" height="23.58"/>
<rect x="94.305" y="141.46" fill="#E2BA7C" width="23.577" height="23.58"/>
<rect x="117.882" y="141.46" fill="#E2BA7C" width="23.58" height="23.58"/>
<rect x="141.462" y="141.46" fill="#E2BA7C" width="23.579" height="23.58"/>
<rect x="165.041" y="141.46" fill="#E2BA7C" width="23.578" height="23.58"/>
<rect x="47.147" y="165.037" fill="#E2BA7C" width="23.578" height="23.58"/>
<rect x="70.726" y="165.037" fill="#E2BA7C" width="23.579" height="23.58"/>
<rect x="94.305" y="165.037" fill="#E2BA7C" width="23.577" height="23.58"/>
<rect x="117.882" y="165.037" fill="#E2BA7C" width="23.58" height="23.58"/>
<rect x="141.462" y="165.037" fill="#E2BA7C" width="23.579" height="23.58"/>
<rect x="165.041" y="165.037" fill="#E2BA7C" width="23.578" height="23.58"/>
<rect x="47.147" y="188.614" fill="#E2BA7C" width="23.578" height="23.58"/>
<rect x="70.726" y="188.614" fill="#E2BA7C" width="23.579" height="23.58"/>
<rect x="94.305" y="188.614" fill="#E2BA7C" width="23.577" height="23.58"/>
<rect x="117.882" y="188.614" fill="#E2BA7C" width="23.58" height="23.58"/>
<rect x="141.462" y="188.614" fill="#E2BA7C" width="23.579" height="23.58"/>
<rect x="165.041" y="188.614" fill="#E2BA7C" width="23.578" height="23.58"/>
<rect x="47.147" y="212.188" fill="#E2BA7C" width="23.578" height="23.579"/>
<rect x="70.726" y="212.188" fill="#E2BA7C" width="23.579" height="23.579"/>
<rect x="94.305" y="212.188" fill="#E2BA7C" width="23.577" height="23.579"/>
<rect x="117.882" y="212.188" fill="#E2BA7C" width="23.58" height="23.579"/>
<rect x="141.462" y="212.188" fill="#E2BA7C" width="23.579" height="23.579"/>
<rect x="165.041" y="212.188" fill="#E2BA7C" width="23.578" height="23.579"/>
<rect x="94.31" y="259.342" fill="#E2BA7C" width="23.581" height="23.578"/>
<rect x="117.891" y="259.342" fill="#E2BA7C" width="23.576" height="23.578"/>
<rect x="94.307" y="235.768" fill="#E2BA7C" width="23.581" height="23.578"/>
<rect x="117.888" y="235.768" fill="#E2BA7C" width="23.576" height="23.578"/>
<rect x="188.619" y="141.46" fill="#E2BA7C" width="23.576" height="23.58"/>
<rect x="23.576" y="141.46" fill="#E2BA7C" width="23.58" height="23.58"/>
<rect x="94.315" y="282.92" fill="#E2BA7C" width="23.579" height="23.576"/>
<rect x="117.895" y="282.92" fill="#E2BA7C" width="23.58" height="23.576"/>
<rect x="70.73" y="165.037" fill="#FFFFFF" width="23.576" height="23.58"/>
<rect x="94.307" y="165.037" fill="#FFFFFF" width="23.578" height="23.58"/>
<rect x="117.885" y="165.037" fill="#FFFFFF" width="23.579" height="23.58"/>
<rect x="141.464" y="165.037" fill="#FFFFFF" width="23.58" height="23.58"/>
<rect x="94.307" y="188.614" fill="#FFFFFF" width="23.578" height="23.58"/>
<rect x="117.885" y="188.614" fill="#FFFFFF" width="23.579" height="23.58"/>
<rect x="141.467" y="188.614" fill="#FFFFFF" width="23.58" height="23.58"/>
<rect x="47.159" y="306.496" fill="#050E0B" width="23.576" height="23.578"/>
<rect x="94.313" y="306.496" fill="#050E0B" width="23.579" height="23.578"/>
<rect x="117.892" y="306.496" fill="#050E0B" width="23.58" height="23.578"/>
<rect x="165.048" y="306.496" fill="#050E0B" width="23.578" height="23.578"/>
<rect x="117.891" y="330.074" fill="#015F46" width="23.576" height="23.577"/>
<rect x="94.313" y="330.074" fill="#015F46" width="23.578" height="23.577"/>
<rect x="188.62" y="330.074" fill="#A8AF8A" width="23.577" height="23.577"/>
<rect x="188.62" y="306.496" fill="#A8AF8A" width="23.577" height="23.578"/>
<rect x="165.044" y="330.074" fill="#015F46" width="23.576" height="23.577"/>
<rect x="47.159" y="353.651" fill="#050E0B" width="23.576" height="23.577"/>
<rect x="23.581" y="353.651" fill="#A8AF8A" width="23.578" height="23.577"/>
<rect x="117.891" y="353.651" fill="#050E0B" width="23.576" height="23.577"/>
<rect x="94.313" y="353.651" fill="#050E0B" width="23.578" height="23.577"/>
<rect x="188.62" y="353.651" fill="#A8AF8A" width="23.577" height="23.577"/>
<rect x="165.044" y="353.651" fill="#050E0B" width="23.576" height="23.577"/>
<rect x="47.159" y="377.228" fill="#0A2D1B" width="23.576" height="23.578"/>
<rect x="23.581" y="377.228" fill="#A8AF8A" width="23.578" height="23.578"/>
<rect x="117.891" y="377.228" fill="#015F46" width="23.576" height="23.578"/>
<rect x="94.313" y="377.228" fill="#0A2D1B" width="23.578" height="23.578"/>
<rect x="188.62" y="377.228" fill="#A8AF8A" width="23.577" height="23.578"/>
<rect x="165.044" y="377.228" fill="#0A2D1B" width="23.576" height="23.578"/>
<rect x="47.159" y="400.805" fill="#0A2D1B" width="23.576" height="23.576"/>
<rect x="23.581" y="400.805" fill="#A8AF8A" width="23.578" height="23.576"/>
<rect x="117.891" y="400.805" fill="#0A2D1B" width="23.576" height="23.576"/>
<rect x="94.313" y="400.805" fill="#0A2D1B" width="23.578" height="23.576"/>
<rect x="188.62" y="400.805" fill="#A8AF8A" width="23.577" height="23.576"/>
<rect x="165.044" y="400.805" fill="#0A2D1B" width="23.576" height="23.576"/>
<rect x="47.159" y="424.381" fill="#0A2D1B" width="23.576" height="23.578"/>
<rect x="23.581" y="424.381" fill="#A8AF8A" width="23.578" height="23.578"/>
<rect x="117.891" y="424.381" fill="#0A2D1B" width="23.576" height="23.578"/>
<rect x="94.313" y="424.381" fill="#0A2D1B" width="23.578" height="23.578"/>
<rect x="188.62" y="424.381" fill="#A8AF8A" width="23.577" height="23.578"/>
<rect x="165.044" y="424.381" fill="#0A2D1B" width="23.576" height="23.578"/>
<rect x="47.159" y="447.959" fill="#0A2D1B" width="23.576" height="23.578"/>
<rect x="70.735" y="330.074" fill="#015F46" width="23.577" height="23.577"/>
<rect x="70.73" y="306.499" fill="#050E0B" width="23.576" height="23.578"/>
<rect x="70.735" y="353.651" fill="#050E0B" width="23.577" height="23.577"/>
<rect x="70.735" y="377.228" fill="#0A2D1B" width="23.577" height="23.578"/>
<rect x="70.735" y="400.805" fill="#0A2D1B" width="23.577" height="23.576"/>
<rect x="70.735" y="424.381" fill="#0A2D1B" width="23.577" height="23.578"/>
<rect x="70.735" y="447.959" fill="#0A2D1B" width="23.577" height="23.578"/>
<rect x="141.467" y="330.074" fill="#015F46" width="23.577" height="23.577"/>
<rect x="47.153" y="377.23" fill="#015F46" width="23.577" height="23.578"/>
<rect x="94.307" y="377.23" fill="#015F46" width="23.578" height="23.578"/>
<rect x="165.038" y="377.23" fill="#015F46" width="23.578" height="23.578"/>
<rect x="70.73" y="377.23" fill="#015F46" width="23.576" height="23.578"/>
<rect x="141.462" y="377.23" fill="#015F46" width="23.576" height="23.578"/>
<rect x="47.153" y="424.385" fill="#015F46" width="23.577" height="23.576"/>
<rect x="117.885" y="424.385" fill="#015F46" width="23.577" height="23.576"/>
<rect x="94.307" y="424.385" fill="#015F46" width="23.578" height="23.576"/>
<rect x="165.038" y="424.385" fill="#015F46" width="23.578" height="23.576"/>
<rect x="70.73" y="424.385" fill="#015F46" width="23.576" height="23.576"/>
<rect x="141.462" y="424.385" fill="#015F46" width="23.576" height="23.576"/>
<rect x="47.153" y="471.537" fill="#015F46" width="23.577" height="23.578"/>
<rect x="117.885" y="471.537" fill="#015F46" width="23.577" height="23.578"/>
<rect x="94.307" y="471.537" fill="#015F46" width="23.578" height="23.578"/>
<rect x="165.038" y="471.537" fill="#015F46" width="23.578" height="23.578"/>
<rect x="70.73" y="471.537" fill="#015F46" width="23.576" height="23.578"/>
<rect x="141.462" y="471.537" fill="#015F46" width="23.576" height="23.578"/>
<rect x="141.467" y="306.496" fill="#050E0B" width="23.577" height="23.578"/>
<rect x="141.467" y="353.651" fill="#050E0B" width="23.577" height="23.577"/>
<rect x="47.153" y="400.808" fill="#050E0B" width="23.577" height="23.577"/>
<rect x="117.885" y="400.808" fill="#050E0B" width="23.577" height="23.577"/>
<rect x="94.307" y="400.808" fill="#050E0B" width="23.578" height="23.577"/>
<rect x="165.038" y="400.808" fill="#050E0B" width="23.578" height="23.577"/>
<rect x="70.73" y="400.808" fill="#050E0B" width="23.576" height="23.577"/>
<rect x="141.462" y="400.808" fill="#050E0B" width="23.576" height="23.577"/>
<rect x="47.153" y="447.961" fill="#050E0B" width="23.577" height="23.576"/>
<rect x="117.885" y="447.961" fill="#050E0B" width="23.577" height="23.576"/>
<rect x="94.307" y="447.961" fill="#050E0B" width="23.578" height="23.576"/>
<rect x="165.038" y="447.961" fill="#050E0B" width="23.578" height="23.576"/>
<rect x="70.73" y="447.961" fill="#050E0B" width="23.576" height="23.576"/>
<rect x="141.462" y="447.961" fill="#050E0B" width="23.576" height="23.576"/>
<rect x="23.581" y="518.693" fill="#A8AF8A" width="23.578" height="23.576"/>
<rect x="188.62" y="518.693" fill="#A8AF8A" width="23.577" height="23.576"/>
<rect x="23.581" y="542.27" fill="#E2BA7C" width="23.578" height="23.576"/>
<rect x="188.62" y="542.27" fill="#E2BA7C" width="23.577" height="23.576"/>
<rect x="212.192" y="542.27" fill="#E2BA7C" width="23.577" height="23.576"/>
<rect x="212.192" y="565.846" fill="#E2BA7C" width="23.577" height="23.578"/>
<rect y="542.27" fill="#E2BA7C" width="23.576" height="23.576"/>
<rect y="565.846" fill="#E2BA7C" width="23.576" height="23.578"/>
<rect x="70.735" y="518.689" fill="#497C99" width="23.577" height="23.578"/>
<rect x="94.313" y="518.689" fill="#497C99" width="23.578" height="23.578"/>
<rect x="117.891" y="518.689" fill="#497C99" width="23.576" height="23.578"/>
<rect x="23.581" y="424.381" fill="#A8AF8A" width="23.578" height="23.578"/>
<rect x="23.576" y="447.961" fill="#A8AF8A" width="23.577" height="23.576"/>
<rect x="23.576" y="471.537" fill="#A8AF8A" width="23.577" height="23.578"/>
<rect x="23.576" y="471.537" fill="#A8AF8A" width="23.577" height="23.578"/>
<rect x="165.044" y="518.689" fill="#497C99" width="23.576" height="23.578"/>
<rect x="47.159" y="518.689" fill="#497C99" width="23.576" height="23.578"/>
<rect x="188.62" y="424.381" fill="#A8AF8A" width="23.577" height="23.578"/>
<rect x="141.467" y="518.689" fill="#497C99" width="23.577" height="23.578"/>
<rect x="70.735" y="495.113" fill="#497C99" width="23.577" height="23.576"/>
<rect x="94.313" y="495.113" fill="#497C99" width="23.578" height="23.576"/>
<rect x="117.891" y="495.113" fill="#497C99" width="23.576" height="23.576"/>
<rect x="94.307" y="565.846" fill="#A8AF8A" width="23.578" height="23.578"/>
<rect x="117.885" y="565.846" fill="#A8AF8A" width="23.577" height="23.578"/>
<rect x="94.307" y="542.27" fill="#A8AF8A" width="23.578" height="23.576"/>
<rect x="117.885" y="542.27" fill="#A8AF8A" width="23.577" height="23.576"/>
<rect x="165.044" y="495.113" fill="#497C99" width="23.576" height="23.576"/>
<rect x="47.159" y="495.113" fill="#497C99" width="23.576" height="23.576"/>
<rect x="141.467" y="495.113" fill="#497C99" width="23.577" height="23.576"/>
<rect x="70.735" y="542.268" fill="#497C99" width="23.577" height="23.576"/>
<rect x="165.044" y="542.268" fill="#497C99" width="23.576" height="23.576"/>
<rect x="47.159" y="542.268" fill="#497C99" width="23.576" height="23.576"/>
<rect x="141.467" y="542.268" fill="#497C99" width="23.577" height="23.576"/>
<rect x="70.735" y="565.844" fill="#497C99" width="23.577" height="23.578"/>
<rect x="165.044" y="565.844" fill="#497C99" width="23.576" height="23.578"/>
<rect x="47.159" y="565.844" fill="#497C99" width="23.576" height="23.578"/>
<rect x="141.467" y="565.844" fill="#497C99" width="23.577" height="23.578"/>
<rect x="70.735" y="589.422" fill="#497C99" width="23.577" height="23.576"/>
<rect x="70.735" y="778.041" fill="#575756" width="23.577" height="23.576"/>
<rect x="141.467" y="778.041" fill="#575756" width="23.577" height="23.576"/>
<rect x="165.044" y="589.422" fill="#497C99" width="23.576" height="23.576"/>
<rect x="47.159" y="589.422" fill="#497C99" width="23.576" height="23.576"/>
<rect x="141.467" y="589.422" fill="#497C99" width="23.577" height="23.576"/>
<rect x="70.735" y="612.998" fill="#497C99" width="23.577" height="23.576"/>
<rect x="165.044" y="612.998" fill="#497C99" width="23.576" height="23.576"/>
<rect x="47.159" y="612.998" fill="#497C99" width="23.576" height="23.576"/>
<rect x="141.467" y="612.998" fill="#497C99" width="23.577" height="23.576"/>
<rect x="70.735" y="636.574" fill="#497C99" width="23.577" height="23.578"/>
<rect x="165.044" y="636.574" fill="#497C99" width="23.576" height="23.578"/>
<rect x="47.159" y="636.574" fill="#497C99" width="23.576" height="23.578"/>
<rect x="141.467" y="636.574" fill="#497C99" width="23.577" height="23.578"/>
<rect x="70.735" y="660.152" fill="#497C99" width="23.577" height="23.576"/>
<rect x="165.044" y="660.152" fill="#497C99" width="23.576" height="23.576"/>
<rect x="47.159" y="660.152" fill="#497C99" width="23.576" height="23.576"/>
<rect x="141.467" y="660.152" fill="#497C99" width="23.577" height="23.576"/>
<rect x="70.73" y="707.309" fill="#497C99" width="23.576" height="23.576"/>
<rect x="165.038" y="707.309" fill="#497C99" width="23.578" height="23.576"/>
<rect x="47.153" y="707.309" fill="#497C99" width="23.577" height="23.576"/>
<rect x="141.462" y="707.309" fill="#497C99" width="23.576" height="23.576"/>
<rect x="70.73" y="683.732" fill="#497C99" width="23.576" height="23.576"/>
<rect x="165.038" y="683.732" fill="#497C99" width="23.578" height="23.576"/>
<rect x="47.153" y="683.732" fill="#497C99" width="23.577" height="23.576"/>
<rect x="141.462" y="683.732" fill="#497C99" width="23.576" height="23.576"/>
<rect x="70.73" y="730.885" fill="#497C99" width="23.576" height="23.578"/>
<rect x="165.038" y="730.885" fill="#497C99" width="23.578" height="23.578"/>
<rect x="47.153" y="730.885" fill="#497C99" width="23.577" height="23.578"/>
<rect x="141.462" y="730.885" fill="#497C99" width="23.576" height="23.578"/>
<rect x="70.735" y="754.463" fill="#575756" width="23.577" height="23.578"/>
<rect x="165.044" y="754.463" fill="#575756" width="23.576" height="23.578"/>
<rect x="47.159" y="754.463" fill="#575756" width="23.576" height="23.578"/>
<rect x="141.467" y="754.463" fill="#575756" width="23.577" height="23.578"/>
<rect x="47.147" y="94.303" fill="#925F36" width="23.578" height="23.579"/>
<rect x="70.726" y="94.303" fill="#925F36" width="23.579" height="23.579"/>
<rect x="94.305" y="94.303" fill="#925F36" width="23.577" height="23.579"/>
<rect x="117.882" y="94.303" fill="#925F36" width="23.58" height="23.579"/>
<rect x="141.462" y="94.303" fill="#E2BA7C" width="23.579" height="23.579"/>
<rect x="165.041" y="94.303" fill="#E2BA7C" width="23.578" height="23.579"/>
<rect x="23.581" y="94.303" fill="#925F36" width="23.578" height="23.579"/>
<rect x="188.62" y="94.303" fill="#925F36" width="23.577" height="23.577"/>
<rect x="188.62" y="282.92" fill="#A8AF8A" width="23.577" height="23.576"/>
<rect x="212.192" y="330.076" fill="#A8AF8A" width="23.577" height="23.576"/>
<rect x="212.192" y="306.499" fill="#A8AF8A" width="23.577" height="23.578"/>
<rect x="212.192" y="353.652" fill="#A8AF8A" width="23.577" height="23.578"/>
<rect x="212.192" y="377.23" fill="#A8AF8A" width="23.577" height="23.578"/>
<rect x="212.192" y="400.808" fill="#A8AF8A" width="23.577" height="23.577"/>
<rect x="212.192" y="424.385" fill="#A8AF8A" width="23.577" height="23.576"/>
<rect x="212.192" y="424.385" fill="#A8AF8A" width="23.577" height="23.576"/>
<rect x="212.192" y="447.961" fill="#A8AF8A" width="23.577" height="23.576"/>
<rect x="212.192" y="471.537" fill="#A8AF8A" width="23.577" height="23.578"/>
<rect x="188.616" y="447.961" fill="#A8AF8A" width="23.576" height="23.576"/>
<rect x="188.616" y="471.537" fill="#A8AF8A" width="23.576" height="23.578"/>
<rect x="212.192" y="495.115" fill="#A8AF8A" width="23.577" height="23.578"/>
<rect x="188.616" y="495.115" fill="#A8AF8A" width="23.576" height="23.578"/>
<rect x="212.192" y="518.693" fill="#A8AF8A" width="23.577" height="23.576"/>
<rect x="212.192" y="518.693" fill="#A8AF8A" width="23.577" height="23.576"/>
<rect y="330.076" fill="#A8AF8A" width="23.576" height="23.576"/>
<rect y="306.499" fill="#A8AF8A" width="23.576" height="23.578"/>
<rect y="353.652" fill="#A8AF8A" width="23.576" height="23.578"/>
<rect y="377.23" fill="#A8AF8A" width="23.576" height="23.578"/>
<rect y="400.808" fill="#A8AF8A" width="23.576" height="23.577"/>
<rect y="424.385" fill="#A8AF8A" width="23.576" height="23.576"/>
<rect y="424.385" fill="#A8AF8A" width="23.576" height="23.576"/>
<rect y="447.961" fill="#A8AF8A" width="23.576" height="23.576"/>
<rect y="471.537" fill="#A8AF8A" width="23.576" height="23.578"/>
<rect x="23.576" y="495.115" fill="#A8AF8A" width="23.577" height="23.578"/>
<rect x="23.576" y="495.115" fill="#A8AF8A" width="23.577" height="23.578"/>
<rect y="495.115" fill="#A8AF8A" width="23.576" height="23.578"/>
<rect y="518.693" fill="#A8AF8A" width="23.576" height="23.576"/>
<rect y="518.693" fill="#A8AF8A" width="23.576" height="23.576"/>
<rect x="23.581" y="282.92" fill="#A8AF8A" width="23.578" height="23.576"/>
<rect x="165.044" y="778.041" fill="#575756" width="23.576" height="23.576"/>
<rect x="188.62" y="778.041" fill="#575756" width="23.577" height="23.576"/>
<rect x="23.581" y="778.041" fill="#575756" width="23.578" height="23.576"/>
<rect x="47.159" y="778.041" fill="#575756" width="23.576" height="23.576"/>
<rect x="47.159" y="282.92" fill="#A8AF8A" width="23.576" height="23.576"/>
<rect x="94.313" y="282.92" fill="#015F46" width="23.578" height="23.576"/>
<rect x="70.735" y="282.92" fill="#015F46" width="23.577" height="23.576"/>
<rect x="117.891" y="282.92" fill="#015F46" width="23.576" height="23.576"/>
<rect x="165.044" y="282.92" fill="#A8AF8A" width="23.576" height="23.576"/>
<rect x="141.467" y="282.92" fill="#015F46" width="23.577" height="23.576"/>
<rect y="94.306" fill="#925F36" width="23.576" height="23.58"/>
<rect x="70.735" y="94.303" fill="#925F36" width="23.577" height="23.579"/>
<rect x="47.153" y="94.306" fill="#925F36" width="23.577" height="23.58"/>
<rect x="117.891" y="94.303" fill="#925F36" width="23.576" height="23.579"/>
<rect x="94.307" y="94.306" fill="#925F36" width="23.578" height="23.58"/>
<rect x="141.462" y="70.731" fill="#925F36" width="23.576" height="23.58"/>
<rect x="165.038" y="70.729" fill="#925F36" width="23.578" height="23.58"/>
<rect x="117.895" y="188.614" fill="#F2D3CC" width="23.579" height="23.579"/>
</svg>
